<svg xmlns="http://www.w3.org/2000/svg" viewBox="0 0 96 96">
  <defs>
    <linearGradient id="g" x1="0" y1="0" x2="1" y2="1">
      <stop offset="0" stop-color="#10b981"/>
      <stop offset="1" stop-color="#14b8a6"/>
    </linearGradient>
  </defs>
  <rect width="96" height="96" rx="20" fill="#0f172a"/>
  <circle cx="48" cy="48" r="30" fill="url(#g)" opacity="0.18"/>
  <path d="M36 18c8 6 16 22 16 30s-8 24-16 30" fill="none" stroke="#10b981" stroke-width="4" stroke-linecap="round"/>
  <path d="M60 18c-8 6-16 22-16 30s8 24 16 30" fill="none" stroke="#14b8a6" stroke-width="4" stroke-linecap="round"/>
  <path d="M41 34h14M39 46h18M41 58h14" stroke="#a7f3d0" stroke-width="3" stroke-linecap="round"/>
  <path d="M22 52c8-2 16 0 22 6-6 6-14 8-22 6-5-2-7-6-7-6s2-4 7-6z" fill="#22c55e" opacity="0.9"/>
  <path d="M74 44c-8 2-16 0-22-6 6-6 14-8 22-6 5 2 7 6 7 6s-2 4-7 6z" fill="#16a34a" opacity="0.9"/>
  <path d="M26 52l12 6M70 44l-12-6" stroke="#e2e8f0" stroke-width="2" stroke-linecap="round"/>
  <circle cx="24" cy="30" r="4" fill="#3b82f6"/>
  <circle cx="72" cy="30" r="4" fill="#8b5cf6"/>
  <circle cx="24" cy="66" r="4" fill="#3b82f6"/>
  <circle cx="72" cy="66" r="4" fill="#8b5cf6"/>
  <path d="M28 30l10 8M68 30l-10 8M28 66l10-8M68 66l-10-8" stroke="#334155" stroke-width="2" stroke-linecap="round"/>
</svg>
