<svg xmlns="http://www.w3.org/2000/svg" viewBox="0 0 64 64">
  <defs>
    <linearGradient id="g" x1="0" y1="0" x2="1" y2="1">
      <stop offset="0" stop-color="#10b981"/>
      <stop offset="1" stop-color="#14b8a6"/>
    </linearGradient>
  </defs>
  <rect width="64" height="64" rx="14" fill="#0f172a"/>
  <circle cx="32" cy="32" r="22" fill="url(#g)"/>
  <path d="M40 33h-8v-6h12c-1-7-7-12-14-12-8 0-14 6-14 14s6 14 14 14c6 0 11-3 13-8h-7v-2h11c0 1-1 3-2 5-3 5-9 8-15 8-9 0-17-7-17-17S21 15 30 15c9 0 16 6 17 15 0 1 0 2-1 3H40z" fill="#0f172a"/>
</svg>
